<mxfile host="Electron" agent="Mozilla/5.0 (Windows NT 10.0; Win64; x64) AppleWebKit/537.36 (KHTML, like Gecko) draw.io/24.7.17 Chrome/128.0.6613.36 Electron/32.0.1 Safari/537.36" version="24.7.17">
  <diagram id="Hl0dMPDngOysgwh2qI5m" name="Page-1">
    <mxGraphModel dx="1290" dy="629" grid="1" gridSize="10" guides="1" tooltips="1" connect="1" arrows="1" fold="1" page="1" pageScale="1" pageWidth="850" pageHeight="1100" math="0" shadow="0">
      <root>
        <mxCell id="0" />
        <mxCell id="1" parent="0" />
        <mxCell id="0E4y7r7La3hrA0hm9-VU-1" value="Entities and their Attributes" style="swimlane;fontStyle=0;childLayout=stackLayout;horizontal=1;startSize=30;horizontalStack=0;resizeParent=1;resizeParentMax=0;resizeLast=0;collapsible=1;marginBottom=0;whiteSpace=wrap;html=1;" parent="1" vertex="1">
          <mxGeometry x="40" y="40" width="140" height="440" as="geometry" />
        </mxCell>
        <mxCell id="0E4y7r7La3hrA0hm9-VU-2" value="&lt;b&gt;&lt;u&gt;Users:&lt;/u&gt;&lt;/b&gt;&lt;div&gt;● user_id (Primary Key)&lt;/div&gt;&lt;div&gt;● name&lt;/div&gt;&lt;div&gt;● email&lt;/div&gt;&lt;div&gt;● password&lt;/div&gt;" style="text;strokeColor=none;fillColor=none;align=left;verticalAlign=middle;spacingLeft=4;spacingRight=4;overflow=hidden;points=[[0,0.5],[1,0.5]];portConstraint=eastwest;rotatable=0;whiteSpace=wrap;html=1;" parent="0E4y7r7La3hrA0hm9-VU-1" vertex="1">
          <mxGeometry y="30" width="140" height="80" as="geometry" />
        </mxCell>
        <mxCell id="0E4y7r7La3hrA0hm9-VU-3" value="&lt;b&gt;&lt;u&gt;Books:&lt;/u&gt;&lt;/b&gt;&lt;div&gt;● book_id (Primary Key)&lt;/div&gt;&lt;div&gt;● title&lt;/div&gt;&lt;div&gt;● author&lt;/div&gt;&lt;div&gt;● genre&lt;/div&gt;" style="text;strokeColor=none;fillColor=none;align=left;verticalAlign=middle;spacingLeft=4;spacingRight=4;overflow=hidden;points=[[0,0.5],[1,0.5]];portConstraint=eastwest;rotatable=0;whiteSpace=wrap;html=1;" parent="0E4y7r7La3hrA0hm9-VU-1" vertex="1">
          <mxGeometry y="110" width="140" height="80" as="geometry" />
        </mxCell>
        <mxCell id="0E4y7r7La3hrA0hm9-VU-4" value="&lt;b&gt;&lt;u&gt;Meetings:&lt;/u&gt;&lt;/b&gt;&lt;div&gt;● meeting_id (Primary Key)&lt;/div&gt;&lt;div&gt;● date&lt;/div&gt;&lt;div&gt;● location&lt;/div&gt;&lt;div&gt;● book_id (Foreign Key, referencing books)&lt;/div&gt;" style="text;strokeColor=none;fillColor=none;align=left;verticalAlign=middle;spacingLeft=4;spacingRight=4;overflow=hidden;points=[[0,0.5],[1,0.5]];portConstraint=eastwest;rotatable=0;whiteSpace=wrap;html=1;" parent="0E4y7r7La3hrA0hm9-VU-1" vertex="1">
          <mxGeometry y="190" width="140" height="110" as="geometry" />
        </mxCell>
        <mxCell id="0E4y7r7La3hrA0hm9-VU-9" value="&lt;b&gt;&lt;u&gt;Discussions:&lt;/u&gt;&lt;/b&gt;&lt;div&gt;● discussion_id (Primary Key)&lt;/div&gt;&lt;div&gt;● user_id (Foreign Key, referencing Users)&lt;/div&gt;&lt;div&gt;● meeting_id (Foreign Key, referencing meetings)&lt;/div&gt;&lt;div&gt;● content&lt;/div&gt;" style="text;strokeColor=none;fillColor=none;align=left;verticalAlign=middle;spacingLeft=4;spacingRight=4;overflow=hidden;points=[[0,0.5],[1,0.5]];portConstraint=eastwest;rotatable=0;whiteSpace=wrap;html=1;" parent="0E4y7r7La3hrA0hm9-VU-1" vertex="1">
          <mxGeometry y="300" width="140" height="140" as="geometry" />
        </mxCell>
        <mxCell id="0E4y7r7La3hrA0hm9-VU-10" value="Relationships" style="swimlane;fontStyle=0;childLayout=stackLayout;horizontal=1;startSize=30;horizontalStack=0;resizeParent=1;resizeParentMax=0;resizeLast=0;collapsible=1;marginBottom=0;whiteSpace=wrap;html=1;" parent="1" vertex="1">
          <mxGeometry x="200" y="40" width="140" height="190" as="geometry" />
        </mxCell>
        <mxCell id="0E4y7r7La3hrA0hm9-VU-11" value="&lt;i&gt;● Users &lt;/i&gt;can have multiple &lt;i&gt;Discussions &lt;/i&gt;(1:M)" style="text;strokeColor=none;fillColor=none;align=left;verticalAlign=middle;spacingLeft=4;spacingRight=4;overflow=hidden;points=[[0,0.5],[1,0.5]];portConstraint=eastwest;rotatable=0;whiteSpace=wrap;html=1;" parent="0E4y7r7La3hrA0hm9-VU-10" vertex="1">
          <mxGeometry y="30" width="140" height="50" as="geometry" />
        </mxCell>
        <mxCell id="0E4y7r7La3hrA0hm9-VU-12" value="● &lt;i&gt;Books&lt;/i&gt; can be discussed in multiple &lt;i&gt;Meetings &lt;/i&gt;(M:1)" style="text;strokeColor=none;fillColor=none;align=left;verticalAlign=middle;spacingLeft=4;spacingRight=4;overflow=hidden;points=[[0,0.5],[1,0.5]];portConstraint=eastwest;rotatable=0;whiteSpace=wrap;html=1;" parent="0E4y7r7La3hrA0hm9-VU-10" vertex="1">
          <mxGeometry y="80" width="140" height="60" as="geometry" />
        </mxCell>
        <mxCell id="0E4y7r7La3hrA0hm9-VU-13" value="● &lt;i&gt;Meetings&lt;/i&gt; can have multiple &lt;i&gt;Discussions &lt;/i&gt;(1:M)" style="text;strokeColor=none;fillColor=none;align=left;verticalAlign=middle;spacingLeft=4;spacingRight=4;overflow=hidden;points=[[0,0.5],[1,0.5]];portConstraint=eastwest;rotatable=0;whiteSpace=wrap;html=1;" parent="0E4y7r7La3hrA0hm9-VU-10" vertex="1">
          <mxGeometry y="140" width="140" height="50" as="geometry" />
        </mxCell>
        <mxCell id="0E4y7r7La3hrA0hm9-VU-15" value="ERD layout (outlined in below section)" style="swimlane;fontStyle=0;childLayout=stackLayout;horizontal=1;startSize=30;horizontalStack=0;resizeParent=1;resizeParentMax=0;resizeLast=0;collapsible=1;marginBottom=0;whiteSpace=wrap;html=1;" parent="1" vertex="1">
          <mxGeometry x="360" y="40" width="210" height="210" as="geometry">
            <mxRectangle x="360" y="40" width="60" height="30" as="alternateBounds" />
          </mxGeometry>
        </mxCell>
        <mxCell id="0E4y7r7La3hrA0hm9-VU-16" value="&lt;div&gt;Users (1) ----- (M) Discussions&lt;/div&gt;&lt;div&gt;&amp;nbsp; &amp;nbsp; &amp;nbsp; &amp;nbsp; \&lt;/div&gt;&lt;div&gt;&amp;nbsp; &amp;nbsp; &amp;nbsp; &amp;nbsp; &amp;nbsp;(M) Discussions&lt;/div&gt;&lt;div&gt;Books (1) ----- (M) Meetings&lt;/div&gt;&lt;div&gt;&amp;nbsp; &amp;nbsp; &amp;nbsp; &amp;nbsp; \&lt;/div&gt;&lt;div&gt;&amp;nbsp; &amp;nbsp; &amp;nbsp; &amp;nbsp; &amp;nbsp;(M) Meetings&lt;/div&gt;&lt;div&gt;Meetings (1) ----- (M) Discussions&lt;/div&gt;&lt;div&gt;&amp;nbsp; &amp;nbsp; &amp;nbsp; &amp;nbsp; \&lt;/div&gt;&lt;div&gt;&amp;nbsp; &amp;nbsp; &amp;nbsp; &amp;nbsp; &amp;nbsp;(1) Books&lt;/div&gt;&lt;div&gt;&lt;br&gt;&lt;/div&gt;" style="text;strokeColor=none;fillColor=none;align=left;verticalAlign=middle;spacingLeft=4;spacingRight=4;overflow=hidden;points=[[0,0.5],[1,0.5]];portConstraint=eastwest;rotatable=0;whiteSpace=wrap;html=1;" parent="0E4y7r7La3hrA0hm9-VU-15" vertex="1">
          <mxGeometry y="30" width="210" height="180" as="geometry" />
        </mxCell>
        <mxCell id="0E4y7r7La3hrA0hm9-VU-19" value="" style="rounded=1;whiteSpace=wrap;html=1;" parent="1" vertex="1">
          <mxGeometry x="40" y="530" width="170" height="90" as="geometry" />
        </mxCell>
        <mxCell id="0E4y7r7La3hrA0hm9-VU-20" value="" style="endArrow=none;dashed=1;html=1;dashPattern=1 3;strokeWidth=2;rounded=0;" parent="1" edge="1">
          <mxGeometry width="50" height="50" relative="1" as="geometry">
            <mxPoint x="10" y="500" as="sourcePoint" />
            <mxPoint x="840" y="500" as="targetPoint" />
          </mxGeometry>
        </mxCell>
        <mxCell id="0E4y7r7La3hrA0hm9-VU-21" value="&lt;b style=&quot;text-align: left;&quot;&gt;&lt;u&gt;Users:&lt;/u&gt;&lt;/b&gt;&lt;div style=&quot;text-align: left;&quot;&gt;● user_id (Primary Key)&lt;/div&gt;&lt;div style=&quot;text-align: left;&quot;&gt;● name&lt;/div&gt;&lt;div style=&quot;text-align: left;&quot;&gt;● email&lt;/div&gt;&lt;div style=&quot;text-align: left;&quot;&gt;● password&lt;/div&gt;" style="text;html=1;align=center;verticalAlign=middle;whiteSpace=wrap;rounded=0;" parent="1" vertex="1">
          <mxGeometry x="50" y="540" width="150" height="70" as="geometry" />
        </mxCell>
        <mxCell id="0E4y7r7La3hrA0hm9-VU-22" value="" style="endArrow=none;html=1;rounded=0;" parent="1" source="0E4y7r7La3hrA0hm9-VU-27" edge="1">
          <mxGeometry width="50" height="50" relative="1" as="geometry">
            <mxPoint x="240" y="580" as="sourcePoint" />
            <mxPoint x="540" y="580" as="targetPoint" />
          </mxGeometry>
        </mxCell>
        <mxCell id="0E4y7r7La3hrA0hm9-VU-23" value="" style="rounded=1;whiteSpace=wrap;html=1;" parent="1" vertex="1">
          <mxGeometry x="600" y="520" width="220" height="150" as="geometry" />
        </mxCell>
        <mxCell id="0E4y7r7La3hrA0hm9-VU-24" value="&lt;b&gt;&lt;u&gt;Discussions:&lt;/u&gt;&lt;/b&gt;&lt;div&gt;● discussion_id (Primary Key)&lt;/div&gt;&lt;div&gt;● user_id (Foreign Key, referencing Users)&lt;/div&gt;&lt;div&gt;● meeting_id (Foreign Key, referencing meetings)&lt;/div&gt;&lt;div&gt;● content&lt;/div&gt;" style="text;strokeColor=none;fillColor=none;align=left;verticalAlign=middle;spacingLeft=4;spacingRight=4;overflow=hidden;points=[[0,0.5],[1,0.5]];portConstraint=eastwest;rotatable=0;whiteSpace=wrap;html=1;" parent="1" vertex="1">
          <mxGeometry x="600" y="525" width="220" height="140" as="geometry" />
        </mxCell>
        <mxCell id="0E4y7r7La3hrA0hm9-VU-27" value="&lt;font style=&quot;font-size: 24px;&quot;&gt;&lt;b&gt;1&lt;/b&gt;&lt;/font&gt;" style="text;html=1;align=center;verticalAlign=middle;whiteSpace=wrap;rounded=0;" parent="1" vertex="1">
          <mxGeometry x="210" y="560" width="40" height="40" as="geometry" />
        </mxCell>
        <mxCell id="0E4y7r7La3hrA0hm9-VU-28" value="&lt;font style=&quot;font-size: 24px;&quot;&gt;&lt;b&gt;M&lt;/b&gt;&lt;/font&gt;" style="text;html=1;align=center;verticalAlign=middle;whiteSpace=wrap;rounded=0;" parent="1" vertex="1">
          <mxGeometry x="550" y="565" width="40" height="30" as="geometry" />
        </mxCell>
        <mxCell id="0E4y7r7La3hrA0hm9-VU-29" value="" style="rounded=1;whiteSpace=wrap;html=1;" parent="1" vertex="1">
          <mxGeometry x="40" y="850" width="210" height="140" as="geometry" />
        </mxCell>
        <mxCell id="0E4y7r7La3hrA0hm9-VU-30" value="&lt;b&gt;&lt;u&gt;Books:&lt;/u&gt;&lt;/b&gt;&lt;div&gt;● book_id (Primary Key)&lt;/div&gt;&lt;div&gt;● title&lt;/div&gt;&lt;div&gt;● author&lt;/div&gt;&lt;div&gt;● genre&lt;/div&gt;" style="text;strokeColor=none;fillColor=none;align=left;verticalAlign=middle;spacingLeft=4;spacingRight=4;overflow=hidden;points=[[0,0.5],[1,0.5]];portConstraint=eastwest;rotatable=0;whiteSpace=wrap;html=1;" parent="1" vertex="1">
          <mxGeometry x="75" y="880" width="140" height="80" as="geometry" />
        </mxCell>
        <mxCell id="0E4y7r7La3hrA0hm9-VU-32" value="" style="rounded=1;whiteSpace=wrap;html=1;" parent="1" vertex="1">
          <mxGeometry x="550" y="850" width="270" height="140" as="geometry" />
        </mxCell>
        <mxCell id="0E4y7r7La3hrA0hm9-VU-33" value="&lt;b&gt;&lt;u&gt;Meetings:&lt;/u&gt;&lt;/b&gt;&lt;div&gt;● meeting_id (Primary Key)&lt;/div&gt;&lt;div&gt;● date&lt;/div&gt;&lt;div&gt;● location&lt;/div&gt;&lt;div&gt;● book_id (Foreign Key, referencing books)&lt;/div&gt;" style="text;strokeColor=none;fillColor=none;align=left;verticalAlign=middle;spacingLeft=4;spacingRight=4;overflow=hidden;points=[[0,0.5],[1,0.5]];portConstraint=eastwest;rotatable=0;whiteSpace=wrap;html=1;" parent="1" vertex="1">
          <mxGeometry x="560" y="865" width="260" height="110" as="geometry" />
        </mxCell>
        <mxCell id="0E4y7r7La3hrA0hm9-VU-34" value="&lt;font style=&quot;font-size: 24px;&quot;&gt;&lt;b&gt;1&lt;/b&gt;&lt;/font&gt;" style="text;html=1;align=center;verticalAlign=middle;whiteSpace=wrap;rounded=0;" parent="1" vertex="1">
          <mxGeometry x="260" y="900" width="40" height="40" as="geometry" />
        </mxCell>
        <mxCell id="0E4y7r7La3hrA0hm9-VU-35" value="" style="endArrow=none;html=1;rounded=0;" parent="1" edge="1">
          <mxGeometry width="50" height="50" relative="1" as="geometry">
            <mxPoint x="290" y="919.5" as="sourcePoint" />
            <mxPoint x="500" y="920" as="targetPoint" />
          </mxGeometry>
        </mxCell>
        <mxCell id="0E4y7r7La3hrA0hm9-VU-36" value="&lt;font style=&quot;font-size: 24px;&quot;&gt;&lt;b&gt;M&lt;/b&gt;&lt;/font&gt;" style="text;html=1;align=center;verticalAlign=middle;whiteSpace=wrap;rounded=0;" parent="1" vertex="1">
          <mxGeometry x="500" y="905" width="40" height="30" as="geometry" />
        </mxCell>
        <mxCell id="0E4y7r7La3hrA0hm9-VU-37" value="" style="endArrow=none;html=1;rounded=0;" parent="1" edge="1">
          <mxGeometry width="50" height="50" relative="1" as="geometry">
            <mxPoint x="700" y="810" as="sourcePoint" />
            <mxPoint x="700" y="710" as="targetPoint" />
          </mxGeometry>
        </mxCell>
        <mxCell id="0E4y7r7La3hrA0hm9-VU-38" value="&lt;font style=&quot;font-size: 24px;&quot;&gt;&lt;b&gt;1&lt;/b&gt;&lt;/font&gt;" style="text;html=1;align=center;verticalAlign=middle;whiteSpace=wrap;rounded=0;" parent="1" vertex="1">
          <mxGeometry x="680" y="810" width="40" height="40" as="geometry" />
        </mxCell>
        <mxCell id="0E4y7r7La3hrA0hm9-VU-39" value="&lt;font style=&quot;font-size: 24px;&quot;&gt;&lt;b&gt;M&lt;/b&gt;&lt;/font&gt;" style="text;html=1;align=center;verticalAlign=middle;whiteSpace=wrap;rounded=0;" parent="1" vertex="1">
          <mxGeometry x="680" y="680" width="40" height="30" as="geometry" />
        </mxCell>
        <mxCell id="0E4y7r7La3hrA0hm9-VU-40" value="" style="endArrow=none;html=1;rounded=0;entryX=0;entryY=0.25;entryDx=0;entryDy=0;" parent="1" target="0E4y7r7La3hrA0hm9-VU-43" edge="1">
          <mxGeometry width="50" height="50" relative="1" as="geometry">
            <mxPoint x="235" y="640" as="sourcePoint" />
            <mxPoint x="505" y="830" as="targetPoint" />
          </mxGeometry>
        </mxCell>
        <mxCell id="0E4y7r7La3hrA0hm9-VU-41" value="&lt;font style=&quot;font-size: 24px;&quot;&gt;&lt;b&gt;M&lt;/b&gt;&lt;/font&gt;" style="text;html=1;align=center;verticalAlign=middle;whiteSpace=wrap;rounded=0;" parent="1" vertex="1">
          <mxGeometry x="210" y="620" width="40" height="40" as="geometry" />
        </mxCell>
        <mxCell id="0E4y7r7La3hrA0hm9-VU-43" value="&lt;font style=&quot;font-size: 24px;&quot;&gt;&lt;b&gt;M&lt;/b&gt;&lt;/font&gt;" style="text;html=1;align=center;verticalAlign=middle;whiteSpace=wrap;rounded=0;" parent="1" vertex="1">
          <mxGeometry x="510" y="830" width="40" height="35" as="geometry" />
        </mxCell>
        <mxCell id="0E4y7r7La3hrA0hm9-VU-44" value="MVP Pages" style="swimlane;fontStyle=0;childLayout=stackLayout;horizontal=1;startSize=30;horizontalStack=0;resizeParent=1;resizeParentMax=0;resizeLast=0;collapsible=1;marginBottom=0;whiteSpace=wrap;html=1;" parent="1" vertex="1">
          <mxGeometry x="600" y="40" width="220" height="380" as="geometry" />
        </mxCell>
        <mxCell id="0E4y7r7La3hrA0hm9-VU-45" value="&lt;b&gt;&lt;i&gt;Sign-Up/Login Page:&amp;nbsp;&lt;br&gt;&lt;/i&gt;&lt;/b&gt;&lt;div&gt;&lt;i style=&quot;background-color: initial;&quot;&gt;●&amp;nbsp;&lt;/i&gt;simple form for user authentication&lt;/div&gt;" style="text;strokeColor=none;fillColor=none;align=left;verticalAlign=middle;spacingLeft=4;spacingRight=4;overflow=hidden;points=[[0,0.5],[1,0.5]];portConstraint=eastwest;rotatable=0;whiteSpace=wrap;html=1;" parent="0E4y7r7La3hrA0hm9-VU-44" vertex="1">
          <mxGeometry y="30" width="220" height="50" as="geometry" />
        </mxCell>
        <mxCell id="0E4y7r7La3hrA0hm9-VU-46" value="&lt;b&gt;&lt;i&gt;Dashboard:&amp;nbsp;&lt;br&gt;&lt;/i&gt;&lt;/b&gt;&lt;div&gt;&lt;i style=&quot;background-color: initial;&quot;&gt;●&amp;nbsp;&lt;/i&gt;Overview of user&#39;s profile&lt;/div&gt;&lt;div&gt;&lt;i style=&quot;background-color: initial;&quot;&gt;● Q&lt;/i&gt;uick access to their book&amp;nbsp;&lt;/div&gt;" style="text;strokeColor=none;fillColor=none;align=left;verticalAlign=middle;spacingLeft=4;spacingRight=4;overflow=hidden;points=[[0,0.5],[1,0.5]];portConstraint=eastwest;rotatable=0;whiteSpace=wrap;html=1;" parent="0E4y7r7La3hrA0hm9-VU-44" vertex="1">
          <mxGeometry y="80" width="220" height="70" as="geometry" />
        </mxCell>
        <mxCell id="0E4y7r7La3hrA0hm9-VU-47" value="&lt;b&gt;&lt;i&gt;Book Club Page:&amp;nbsp;&lt;/i&gt;&lt;/b&gt;&lt;div&gt;&lt;i&gt;● &lt;/i&gt;Create a new book club&lt;br&gt;&lt;/div&gt;&lt;div&gt;&lt;i&gt;● &lt;/i&gt;List of current book clubs the user is a part of&lt;br&gt;&lt;/div&gt;" style="text;strokeColor=none;fillColor=none;align=left;verticalAlign=middle;spacingLeft=4;spacingRight=4;overflow=hidden;points=[[0,0.5],[1,0.5]];portConstraint=eastwest;rotatable=0;whiteSpace=wrap;html=1;" parent="0E4y7r7La3hrA0hm9-VU-44" vertex="1">
          <mxGeometry y="150" width="220" height="70" as="geometry" />
        </mxCell>
        <mxCell id="0E4y7r7La3hrA0hm9-VU-48" value="&lt;b&gt;&lt;i&gt;Books Page:&lt;/i&gt;&lt;/b&gt;&lt;div&gt;&lt;i&gt;● &lt;/i&gt;Add books to a club&#39;s reading list.&lt;br&gt;&lt;/div&gt;&lt;div&gt;● List of current book clubs the user is a part of.&lt;i&gt;&lt;br&gt;&lt;/i&gt;&lt;/div&gt;" style="text;strokeColor=none;fillColor=none;align=left;verticalAlign=middle;spacingLeft=4;spacingRight=4;overflow=hidden;points=[[0,0.5],[1,0.5]];portConstraint=eastwest;rotatable=0;whiteSpace=wrap;html=1;" parent="0E4y7r7La3hrA0hm9-VU-44" vertex="1">
          <mxGeometry y="220" width="220" height="80" as="geometry" />
        </mxCell>
        <mxCell id="0E4y7r7La3hrA0hm9-VU-49" value="&lt;b&gt;&lt;i&gt;Meetings Page:&amp;nbsp;&lt;/i&gt;&lt;/b&gt;&lt;div&gt;&lt;i&gt;● &lt;/i&gt;Schedule and manage meetings.&lt;br&gt;&lt;/div&gt;&lt;div&gt;&lt;i&gt;● &lt;/i&gt;Calender or list view of upcoming meetings.&lt;br&gt;&lt;/div&gt;" style="text;strokeColor=none;fillColor=none;align=left;verticalAlign=middle;spacingLeft=4;spacingRight=4;overflow=hidden;points=[[0,0.5],[1,0.5]];portConstraint=eastwest;rotatable=0;whiteSpace=wrap;html=1;" parent="0E4y7r7La3hrA0hm9-VU-44" vertex="1">
          <mxGeometry y="300" width="220" height="80" as="geometry" />
        </mxCell>
        <mxCell id="0E4y7r7La3hrA0hm9-VU-52" value="Wireframe Layout:" style="swimlane;fontStyle=0;childLayout=stackLayout;horizontal=1;startSize=30;horizontalStack=0;resizeParent=1;resizeParentMax=0;resizeLast=0;collapsible=1;marginBottom=0;whiteSpace=wrap;html=1;" parent="1" vertex="1">
          <mxGeometry x="200" y="260" width="370" height="230" as="geometry" />
        </mxCell>
        <mxCell id="0E4y7r7La3hrA0hm9-VU-53" value="Sign-Up/Login Page: Centered form with fields for email and password, and buttons for Sign Up and Log In." style="text;strokeColor=none;fillColor=none;align=left;verticalAlign=middle;spacingLeft=4;spacingRight=4;overflow=hidden;points=[[0,0.5],[1,0.5]];portConstraint=eastwest;rotatable=0;whiteSpace=wrap;html=1;" parent="0E4y7r7La3hrA0hm9-VU-52" vertex="1">
          <mxGeometry y="30" width="370" height="40" as="geometry" />
        </mxCell>
        <mxCell id="0E4y7r7La3hrA0hm9-VU-54" value="Dashboard: Left sidebar for navigation. Main content area with sections for Profile, Current Book Clubs, and Upcoming Meetings." style="text;strokeColor=none;fillColor=none;align=left;verticalAlign=middle;spacingLeft=4;spacingRight=4;overflow=hidden;points=[[0,0.5],[1,0.5]];portConstraint=eastwest;rotatable=0;whiteSpace=wrap;html=1;" parent="0E4y7r7La3hrA0hm9-VU-52" vertex="1">
          <mxGeometry y="70" width="370" height="40" as="geometry" />
        </mxCell>
        <mxCell id="0E4y7r7La3hrA0hm9-VU-55" value="Book Club Page: Form to create a new book club. Below, a list of user’s book clubs with options to view or manage each." style="text;strokeColor=none;fillColor=none;align=left;verticalAlign=middle;spacingLeft=4;spacingRight=4;overflow=hidden;points=[[0,0.5],[1,0.5]];portConstraint=eastwest;rotatable=0;whiteSpace=wrap;html=1;" parent="0E4y7r7La3hrA0hm9-VU-52" vertex="1">
          <mxGeometry y="110" width="370" height="40" as="geometry" />
        </mxCell>
        <mxCell id="0E4y7r7La3hrA0hm9-VU-56" value="Books Page: Form to add a new book. Below, a list of books with edit/delete options." style="text;strokeColor=none;fillColor=none;align=left;verticalAlign=middle;spacingLeft=4;spacingRight=4;overflow=hidden;points=[[0,0.5],[1,0.5]];portConstraint=eastwest;rotatable=0;whiteSpace=wrap;html=1;" parent="0E4y7r7La3hrA0hm9-VU-52" vertex="1">
          <mxGeometry y="150" width="370" height="40" as="geometry" />
        </mxCell>
        <mxCell id="0E4y7r7La3hrA0hm9-VU-58" value="Meetings Page: Form to schedule a new meeting. Below, a list or calendar view of upcoming meetings." style="text;strokeColor=none;fillColor=none;align=left;verticalAlign=middle;spacingLeft=4;spacingRight=4;overflow=hidden;points=[[0,0.5],[1,0.5]];portConstraint=eastwest;rotatable=0;whiteSpace=wrap;html=1;" parent="0E4y7r7La3hrA0hm9-VU-52" vertex="1">
          <mxGeometry y="190" width="370" height="40" as="geometry" />
        </mxCell>
      </root>
    </mxGraphModel>
  </diagram>
</mxfile>
